<?xml version="1.0" encoding="UTF-8" standalone="no"?>
<!-- Created with Inkscape (http://www.inkscape.org/) -->

<svg
   width="174.90047mm"
   height="174.80817mm"
   viewBox="0 0 174.90047 174.80817"
   version="1.1"
   id="svg1"
   xml:space="preserve"
   inkscape:version="1.3 (0e150ed6c4, 2023-07-21)"
   sodipodi:docname="gs.svg"
   xmlns:inkscape="http://www.inkscape.org/namespaces/inkscape"
   xmlns:sodipodi="http://sodipodi.sourceforge.net/DTD/sodipodi-0.dtd"
   xmlns="http://www.w3.org/2000/svg"
   xmlns:svg="http://www.w3.org/2000/svg"><sodipodi:namedview
     id="namedview1"
     pagecolor="#ffffff"
     bordercolor="#000000"
     borderopacity="0.25"
     inkscape:showpageshadow="2"
     inkscape:pageopacity="0.0"
     inkscape:pagecheckerboard="0"
     inkscape:deskcolor="#d1d1d1"
     inkscape:document-units="mm"
     inkscape:zoom="0.69208573"
     inkscape:cx="559.17928"
     inkscape:cy="304.15307"
     inkscape:window-width="1920"
     inkscape:window-height="1022"
     inkscape:window-x="0"
     inkscape:window-y="0"
     inkscape:window-maximized="1"
     inkscape:current-layer="layer1" /><defs
     id="defs1" /><g
     inkscape:label="Layer 1"
     inkscape:groupmode="layer"
     id="layer1"
     transform="translate(-19.492675,-17.536129)"><path
       style="fill:#ffcc3d;fill-opacity:1"
       d="m 100.32261,192.29412 c -0.0501,-0.0501 -1.038858,-0.17517 -2.197178,-0.27788 -3.37962,-0.29969 -7.41228,-0.93142 -9.64139,-1.51034 -0.4191,-0.10885 -1.0668,-0.26424 -1.43933,-0.34531 -0.37254,-0.0811 -0.98214,-0.22436 -1.35467,-0.31842 -0.37253,-0.0941 -0.90593,-0.21827 -1.18533,-0.27602 -0.2794,-0.0577 -0.6604,-0.16972 -0.84667,-0.24882 -0.35688,-0.15156 -0.99044,-0.30253 -1.905,-0.45394 -0.30268,-0.0501 -0.55033,-0.15898 -0.55033,-0.24192 0,-0.0829 -0.22411,-0.15081 -0.49801,-0.15081 -0.2739,0 -0.5451,-0.0762 -0.60266,-0.16933 -0.0576,-0.0931 -0.27796,-0.16933 -0.48977,-0.16933 -0.21182,0 -0.43675,-0.0516 -0.49985,-0.11473 -0.0631,-0.0631 -0.59014,-0.28197 -1.17122,-0.48637 -2.09677,-0.7376 -2.99706,-1.07275 -3.62982,-1.35128 -0.354201,-0.15592 -0.796411,-0.34172 -0.982671,-0.4129 -0.86652,-0.33111 -1.23749,-0.49101 -1.92101,-0.82801 -0.40461,-0.19949 -0.84276,-0.36271 -0.97366,-0.36271 -0.1309,0 -0.238,-0.0762 -0.238,-0.16934 0,-0.0931 -0.10656,-0.16933 -0.23681,-0.16933 -0.13024,0 -0.67138,-0.2286 -1.20252,-0.508 -0.53115,-0.2794 -1.07229,-0.508 -1.20253,-0.508 -0.13025,0 -0.23681,-0.0609 -0.23681,-0.13543 0,-0.0745 -0.6096,-0.43264 -1.35466,-0.7959 -0.74507,-0.36326 -1.35467,-0.72142 -1.35467,-0.79591 0,-0.0745 -0.1524,-0.13543 -0.33867,-0.13543 -0.18626,0 -0.33866,-0.062 -0.33866,-0.13772 0,-0.0757 -0.2667,-0.24238 -0.59267,-0.37028 -0.32597,-0.1279 -0.59267,-0.28563 -0.59267,-0.35052 0,-0.0649 -0.13335,-0.16027 -0.29633,-0.21195 -0.29014,-0.092 -1.22951,-0.6247 -1.397,-0.79219 -0.0466,-0.0466 -0.25612,-0.17992 -0.46567,-0.29634 -0.20955,-0.11641 -0.55245,-0.30691 -0.762,-0.42333 -0.20955,-0.11642 -0.4191,-0.25199 -0.46566,-0.30127 -0.24421,-0.25843 -1.88746,-1.34973 -2.0324,-1.34973 -0.0929,0 -0.16894,-0.0633 -0.16894,-0.14072 0,-0.0774 -0.20955,-0.24832 -0.46566,-0.37984 -0.25612,-0.13152 -0.58891,-0.373 -0.73953,-0.53662 -0.15063,-0.16362 -0.34581,-0.29749 -0.43374,-0.29749 -0.0879,0 -0.30759,-0.13542 -0.48814,-0.30093 -0.18054,-0.16552 -0.59496,-0.48385 -0.92093,-0.70741 -0.32596,-0.22356 -0.71848,-0.52629 -0.87226,-0.67273 -0.15378,-0.14644 -0.49668,-0.43121 -0.762,-0.63281 -0.26532,-0.2016 -0.6729,-0.53409 -0.90574,-0.73887 -0.23283,-0.20477 -0.69003,-0.57322 -1.016,-0.81878 -0.70885,-0.53399 -0.61011,-0.44842 -2.4691,-2.1398 -2.35869,-2.14604 -6.4239,-6.33813 -7.79988,-8.04333 -0.26303,-0.32597 -0.52463,-0.63077 -0.58134,-0.67734 -0.0567,-0.0466 -0.38051,-0.45079 -0.71956,-0.89827 -0.33906,-0.44748 -0.71299,-0.9144 -0.83096,-1.03758 -0.11797,-0.12319 -0.32879,-0.39346 -0.46849,-0.60059 -0.1397,-0.20714 -0.50165,-0.65047 -0.80433,-0.98518 -0.30269,-0.33471 -0.55034,-0.70797 -0.55034,-0.82947 0,-0.1215 -0.0572,-0.2213 -0.127,-0.22178 -0.0699,-4.8e-4 -0.3937,-0.41919 -0.71966,-0.93046 -0.32597,-0.51127 -0.64982,-0.92998 -0.71967,-0.93046 -0.0699,-4.8e-4 -0.12802,-0.0961 -0.12927,-0.21254 -0.001,-0.11642 -0.15197,-0.40217 -0.33493,-0.635 -0.59489,-0.75706 -1.86413,-2.70858 -1.86413,-2.8662 0,-0.0845 -0.0572,-0.17898 -0.127,-0.21002 -0.15898,-0.0707 -0.70889,-0.97261 -0.83452,-1.36878 -0.0517,-0.16298 -0.16129,-0.29633 -0.24357,-0.29633 -0.0823,0 -0.14958,-0.1524 -0.14958,-0.33867 0,-0.18627 -0.062,-0.33867 -0.13773,-0.33867 -0.0757,0 -0.24237,-0.2667 -0.37027,-0.59266 -0.1279,-0.32597 -0.29452,-0.59267 -0.37027,-0.59267 -0.0757,0 -0.13773,-0.14605 -0.13773,-0.32456 0,-0.1785 -0.063,-0.34995 -0.14007,-0.381 -0.18993,-0.0765 -1.7226,-3.01175 -1.7226,-3.29894 0,-0.12586 -0.0762,-0.22883 -0.16933,-0.22883 -0.0931,0 -0.16933,-0.1524 -0.16933,-0.33867 0,-0.18627 -0.0762,-0.33867 -0.16934,-0.33867 -0.0931,0 -0.16933,-0.1524 -0.16933,-0.33866 0,-0.18627 -0.0762,-0.33867 -0.16933,-0.33867 -0.0931,0 -0.16934,-0.11533 -0.16934,-0.2563 0,-0.24868 -0.0708,-0.42845 -0.48156,-1.22307 -0.10767,-0.20829 -0.19577,-0.49404 -0.19577,-0.635 0,-0.14096 -0.0762,-0.2563 -0.16933,-0.2563 -0.0931,0 -0.16934,-0.1905 -0.16934,-0.42333 0,-0.23283 -0.0762,-0.42333 -0.16933,-0.42333 -0.0931,0 -0.16933,-0.18601 -0.16933,-0.41334 0,-0.22734 -0.0651,-0.4536 -0.14476,-0.50281 -0.0796,-0.0492 -0.3577,-0.68235 -0.61797,-1.40699 -0.26027,-0.72464 -0.52386,-1.39373 -0.58576,-1.48686 -0.0619,-0.0931 -0.28694,-0.74084 -0.50009,-1.43934 -0.21315,-0.6985 -0.45592,-1.40231 -0.53948,-1.56403 -0.0836,-0.16172 -0.15194,-0.48557 -0.15194,-0.71967 0,-0.2341 -0.0762,-0.42563 -0.16934,-0.42563 -0.0931,0 -0.16933,-0.2667 -0.16933,-0.59267 0,-0.32596 -0.0762,-0.59266 -0.16933,-0.59266 -0.0931,0 -0.16934,-0.26221 -0.16934,-0.58268 0,-0.32047 -0.0678,-0.62456 -0.15062,-0.67576 -0.0828,-0.0512 -0.19353,-0.34145 -0.24596,-0.64499 -0.0524,-0.30355 -0.14225,-0.81861 -0.19959,-1.14457 -0.0573,-0.32597 -0.17005,-0.74507 -0.25049,-0.93134 -0.0804,-0.18626 -0.18574,-0.56726 -0.234,-0.84666 -0.0483,-0.2794 -0.24697,-1.27 -0.44159,-2.20134 -1.21367,-5.80802 -1.60383,-10.024 -1.59839,-17.272 0.005,-6.370964 0.26419,-9.865504 1.06845,-14.393334 0.57195,-3.21996 0.70529,-3.87239 0.86518,-4.23333 0.0825,-0.18627 0.19576,-0.643467 0.25168,-1.015997 0.0559,-0.37254 0.14489,-0.96356 0.19772,-1.3134 0.0528,-0.34983 0.16421,-0.67818 0.2475,-0.72966 0.0833,-0.0515 0.15145,-0.3558 0.15145,-0.67627 0,-0.32047 0.0679,-0.58267 0.1508,-0.58267 0.14242,0 0.19254,-0.19107 0.45563,-1.73724 0.0596,-0.35011 0.1761,-0.67846 0.25894,-0.72966 0.0828,-0.0512 0.15063,-0.31719 0.15063,-0.5911 0,-0.2739 0.0762,-0.498 0.16933,-0.498 0.0931,0 0.16933,-0.22411 0.16933,-0.49801 0,-0.2739 0.0762,-0.5451 0.16934,-0.60266 0.0931,-0.0576 0.16933,-0.25359 0.16933,-0.43563 0,-0.18203 0.0684,-0.46328 0.15195,-0.625 0.0836,-0.16172 0.26785,-0.59884 0.40951,-0.97137 0.79572,-2.09257 1.05997,-2.71501 1.17421,-2.76578 0.0699,-0.03104 0.127,-0.203527 0.127,-0.383296 0,-0.179769 0.0762,-0.478219 0.16933,-0.663222 0.0931,-0.185003 0.24553,-0.487735 0.33867,-0.672738 0.0931,-0.185003 0.16933,-0.451703 0.16933,-0.592667 0,-0.140964 0.0762,-0.256298 0.16933,-0.256298 0.0931,0 0.16934,-0.115334 0.16934,-0.256297 0,-0.140964 0.0762,-0.407664 0.16933,-0.592667 0.0931,-0.185003 0.24553,-0.487735 0.33867,-0.672738 0.0931,-0.185003 0.16933,-0.445353 0.16933,-0.578556 0,-0.133202 0.0572,-0.267586 0.127,-0.298631 0.0699,-0.03104 0.30861,-0.437444 0.53059,-0.903111 0.7553,-1.584534 1.57436,-3.163285 1.71308,-3.302 0.0466,-0.04657 0.24438,-0.389466 0.43959,-0.762 0.19521,-0.372533 0.5119,-0.952643 0.70375,-1.289133 0.19184,-0.336491 0.45123,-0.793691 0.5764,-1.016 0.12518,-0.22231 0.26569,-0.4423 0.31226,-0.488867 0.0466,-0.04657 0.17991,-0.256116 0.29633,-0.465666 0.11642,-0.20955 0.30692,-0.55245 0.42333,-0.762 0.11642,-0.20955 0.25189,-0.4191 0.30104,-0.465667 0.0491,-0.04657 0.39205,-0.56025 0.762,-1.141519 0.36995,-0.581269 0.72978,-1.057519 0.79963,-1.058333 0.0699,-8.15e-4 0.12718,-0.09673 0.1274,-0.213148 2.2e-4,-0.116417 0.22864,-0.478367 0.5076,-0.804333 0.27896,-0.325967 0.50738,-0.681567 0.5076,-0.790223 2.2e-4,-0.108655 0.062,-0.222955 0.13726,-0.254 0.0753,-0.03104 0.3957,-0.435789 0.71206,-0.899434 0.59421,-0.870832 1.01933,-1.403716 1.6101,-2.018232 0.18829,-0.195861 0.52868,-0.622811 0.75642,-0.948778 0.22775,-0.325967 0.49279,-0.674417 0.58899,-0.774334 0.0962,-0.09992 0.4797,-0.550506 0.85224,-1.001308 1.90311,-2.302955 7.61243,-8.025945 9.54731,-9.570181 0.40809,-0.325697 0.90391,-0.744577 1.10182,-0.930844 0.19791,-0.186266 0.62602,-0.539577 0.95135,-0.785134 0.32533,-0.245558 0.75678,-0.588458 0.95877,-0.762 0.20199,-0.173543 0.56845,-0.462949 0.81437,-0.643125 0.24592,-0.180176 0.65216,-0.503933 0.90275,-0.71946 0.25059,-0.215527 0.52289,-0.39196 0.6051,-0.392074 0.0822,-1.14e-4 0.27271,-0.134077 0.42333,-0.297696 0.15063,-0.16362 0.48341,-0.405096 0.73953,-0.536614 0.25612,-0.131519 0.46567,-0.302448 0.46567,-0.379844 0,-0.0774 0.0952,-0.140898 0.21166,-0.141117 0.11642,-2.18e-4 0.47837,-0.228825 0.80434,-0.508015 0.32596,-0.27919 0.82126,-0.616883 1.10066,-0.75043 0.2794,-0.133546 0.6604,-0.381952 0.84667,-0.552011 0.18627,-0.17006 0.70062,-0.498807 1.143,-0.730549 0.44238,-0.231742 0.80433,-0.464408 0.80433,-0.517035 0,-0.05263 0.2667,-0.20033 0.59267,-0.328229 0.32597,-0.1279 0.59267,-0.275921 0.59267,-0.328936 0,-0.05302 0.24765,-0.204284 0.55033,-0.336152 0.30268,-0.131869 0.81703,-0.405503 1.143,-0.608076 0.66947,-0.416043 4.89117,-2.552311 6.18067,-3.127543 0.46566,-0.20773 0.97898,-0.445551 1.1407,-0.528492 0.16172,-0.08294 0.40937,-0.150801 0.55033,-0.150801 0.14097,0 0.2563,-0.05956 0.2563,-0.132366 0,-0.0728 0.36195,-0.237674 0.80433,-0.366386 0.44239,-0.128711 0.842441,-0.284833 0.889001,-0.346938 0.0466,-0.0621 0.69427,-0.328659 1.43934,-0.592344 0.74506,-0.263685 1.42705,-0.543299 1.51553,-0.621364 0.0885,-0.07806 0.33163,-0.141936 0.54034,-0.141936 0.20871,0 0.42657,-0.0762 0.48413,-0.169333 0.0576,-0.09313 0.28616,-0.169333 0.508,-0.169333 0.22184,0 0.45044,-0.0762 0.508,-0.169334 0.0576,-0.09313 0.28616,-0.169333 0.508,-0.169333 0.22184,0 0.45044,-0.0762 0.508,-0.169333 0.0576,-0.09313 0.32875,-0.169334 0.60266,-0.169334 0.2739,0 0.498,-0.06786 0.498,-0.150807 0,-0.08294 0.24765,-0.191807 0.55034,-0.241919 0.91455,-0.151411 1.54812,-0.302382 1.905,-0.45394 0.3992,-0.169533 1.10772,-0.331421 1.99072,-0.454858 0.34984,-0.0489 0.67818,-0.157067 0.72966,-0.240363 0.0515,-0.08329 0.38941,-0.151446 0.75095,-0.151446 0.36154,0 0.69808,-0.06592 0.74788,-0.146484 0.0498,-0.08057 0.37814,-0.191919 0.72966,-0.247451 0.35152,-0.05553 1.74403,-0.300196 3.09446,-0.543699 4.94909,-0.89239 8.491358,-1.170889 14.901328,-1.171564 4.80853,-5.07e-4 7.53752,0.138282 11.26067,0.572686 1.37583,0.160527 5.91076,0.956356 6.92617,1.215465 1.07947,0.275455 2.15791,0.503653 2.85389,0.603885 0.34984,0.05038 0.67818,0.159754 0.72966,0.243049 0.0515,0.0833 0.35581,0.151446 0.67628,0.151446 0.32047,0 0.58267,0.0762 0.58267,0.169334 0,0.09313 0.2622,0.169333 0.58267,0.169333 0.32047,0 0.62977,0.0762 0.68733,0.169333 0.0576,0.09313 0.29169,0.169334 0.52029,0.169334 0.2286,0 0.54795,0.06837 0.70967,0.15194 0.16172,0.08357 0.86554,0.319994 1.56404,0.525393 0.6985,0.2054 1.40231,0.441827 1.56403,0.525394 0.16172,0.08357 0.43223,0.151939 0.60114,0.151939 0.1689,0 0.37949,0.06817 0.46796,0.151485 0.0885,0.08332 0.70956,0.347021 1.38017,0.58601 0.67062,0.23899 1.35642,0.504831 1.524,0.59076 0.29474,0.151125 0.82524,0.374968 1.61703,0.682294 0.46654,0.181081 1.96638,0.849815 2.36837,1.055983 0.16172,0.08294 0.40937,0.150802 0.55033,0.150802 0.14097,0 0.2563,0.0762 0.2563,0.169333 0,0.09313 0.1524,0.169333 0.33867,0.169333 0.18626,0 0.33866,0.0762 0.33866,0.169334 0,0.09313 0.1524,0.169333 0.33867,0.169333 0.18627,0 0.33867,0.0762 0.33867,0.169333 0,0.09313 0.0911,0.169334 0.20252,0.169334 0.20855,0 3.20216,1.497301 3.35348,1.677292 0.0466,0.05539 0.38946,0.264466 0.762,0.464616 0.37253,0.200149 1.02023,0.565446 1.43933,0.811772 0.4191,0.246325 0.89535,0.491504 1.05833,0.544841 0.16299,0.05334 0.29634,0.155046 0.29634,0.226018 0,0.07097 0.2286,0.22373 0.508,0.339461 0.2794,0.115731 0.508,0.277376 0.508,0.35921 0,0.08183 0.0704,0.14879 0.15649,0.14879 0.18237,0 3.83582,2.463078 4.32044,2.912744 0.18054,0.167524 0.38922,0.304589 0.46373,0.304589 0.0745,0 0.26969,0.109612 0.43374,0.243582 0.55419,0.452581 1.70403,1.362594 2.24734,1.778598 0.29703,0.227433 0.74975,0.608433 1.00606,0.846667 0.2563,0.238234 0.71948,0.623653 1.02928,0.856487 2.26566,1.702747 7.8538,7.231121 10.09729,9.989303 0.49958,0.614189 1.20019,1.435303 1.50224,1.760629 0.096,0.103437 0.54969,0.683368 1.00811,1.288734 0.45841,0.605367 0.88016,1.138767 0.93722,1.185334 0.0571,0.04657 0.36098,0.465666 0.67538,0.931333 0.31439,0.465667 0.63321,0.872067 0.70849,0.903111 0.0753,0.03104 0.13695,0.145345 0.13706,0.254 1.1e-4,0.108656 0.19061,0.418958 0.42333,0.68956 0.23272,0.270603 0.42313,0.55091 0.42313,0.622905 0,0.072 0.0981,0.231593 0.218,0.354662 0.11991,0.123069 0.39407,0.511533 0.60926,0.863253 0.21518,0.35172 0.47903,0.73272 0.58633,0.846667 0.10729,0.113946 0.30938,0.435775 0.44908,0.715175 0.1397,0.2794 0.38735,0.655719 0.55033,0.836263 0.16298,0.180545 0.29633,0.428195 0.29633,0.550334 0,0.122138 0.0762,0.22207 0.16934,0.22207 0.0931,0 0.16933,0.1524 0.16933,0.338667 0,0.186266 0.0762,0.338666 0.16933,0.338666 0.0931,0 0.17103,0.09525 0.1731,0.211667 0.002,0.116417 0.15278,0.402167 0.3349,0.635 0.18213,0.232833 0.33283,0.550333 0.3349,0.705556 0.002,0.155222 0.0627,0.307622 0.13477,0.338666 0.0721,0.03104 0.42733,0.627945 0.78949,1.326445 0.36217,0.6985 0.70339,1.3081 0.75827,1.354666 0.0549,0.04657 0.18409,0.275167 0.28713,0.508 0.10305,0.232834 0.35057,0.754385 0.55007,1.159002 0.19949,0.404618 0.36271,0.842768 0.36271,0.973667 0,0.130899 0.0762,0.237998 0.16933,0.237998 0.0931,0 0.16933,0.1524 0.16933,0.338667 0,0.186266 0.0762,0.338666 0.16934,0.338666 0.0931,0 0.16933,0.115334 0.16933,0.256298 0,0.140964 0.0673,0.388614 0.14958,0.550333 0.13825,0.271766 0.28225,0.611839 0.68021,1.606369 0.0839,0.20955 0.3013,0.7239 0.48322,1.143001 0.18192,0.4191 0.46881,1.143 0.63753,1.60867 0.16872,0.46566 0.37038,0.91905 0.44811,1.00753 0.0777,0.0885 0.14135,0.33163 0.14135,0.54034 0,0.20871 0.0762,0.42657 0.16933,0.48413 0.0931,0.0576 0.16934,0.28616 0.16934,0.508 0,0.22184 0.0762,0.45044 0.16933,0.508 0.0931,0.0576 0.16933,0.29065 0.16933,0.51799 0,0.22734 0.0762,0.41334 0.16934,0.41334 0.0931,0 0.16933,0.2241 0.16933,0.49801 0,0.2739 0.0762,0.5451 0.16933,0.60266 0.0931,0.0576 0.16934,0.32426 0.16934,0.59266 0,0.26841 0.0762,0.53511 0.16933,0.59267 0.0931,0.0576 0.16933,0.36686 0.16933,0.68733 0,0.32047 0.0679,0.58267 0.15081,0.58267 0.0829,0 0.19302,0.24765 0.2446,0.55033 0.14774,0.86683 0.40135,1.97557 0.94881,4.148017 0.27078,1.07451 1.05256,5.38929 1.20434,6.64698 0.51836,4.2952 0.57828,5.53907 0.57509,11.938004 -0.003,6.30869 -0.10221,8.39424 -0.5711,12.02267 -0.25284,1.95659 -1.18162,6.84987 -1.36529,7.19308 -0.0942,0.17599 -0.17126,0.5491 -0.17126,0.82913 0,0.28002 -0.0682,0.55126 -0.15144,0.60273 -0.0833,0.0515 -0.19467,0.37983 -0.24751,0.72966 -0.22435,1.48559 -0.32424,1.91442 -0.46642,2.0023 -0.0829,0.0512 -0.15063,0.35529 -0.15063,0.67576 0,0.32047 -0.0762,0.58267 -0.16933,0.58267 -0.0931,0 -0.16933,0.22411 -0.16933,0.49801 0,0.2739 -0.0762,0.5451 -0.16934,0.60266 -0.0931,0.0576 -0.16933,0.32426 -0.16933,0.59267 0,0.2684 -0.0762,0.5351 -0.16933,0.59266 -0.0931,0.0576 -0.16934,0.28616 -0.16934,0.508 0,0.22184 -0.0762,0.45044 -0.16933,0.508 -0.0931,0.0576 -0.16933,0.28616 -0.16933,0.508 0,0.22184 -0.0762,0.45044 -0.16934,0.508 -0.0931,0.0576 -0.16933,0.28616 -0.16933,0.508 0,0.22184 -0.0671,0.44479 -0.149,0.49544 -0.082,0.0506 -0.27843,0.4878 -0.43663,0.97145 -0.15819,0.48365 -0.44164,1.22776 -0.62987,1.65357 -0.18824,0.42582 -0.41975,0.96471 -0.51447,1.19754 -0.0947,0.23284 -0.23952,0.55565 -0.32179,0.71737 -0.0823,0.16172 -0.14957,0.40937 -0.14957,0.55034 0,0.14096 -0.0762,0.25629 -0.16934,0.25629 -0.0931,0 -0.16933,0.1071 -0.16933,0.238 0,0.1309 -0.14338,0.53095 -0.31861,0.889 -0.17524,0.35805 -0.68919,1.413 -1.14213,2.34434 -0.45293,0.93133 -1.04519,2.07433 -1.31614,2.54 -0.55312,0.95064 -1.41016,2.51444 -1.69293,3.08901 -0.10277,0.20882 -0.24401,0.38027 -0.31386,0.381 -0.0699,7.3e-4 -0.127,0.11881 -0.127,0.2624 0,0.14359 -0.1524,0.42466 -0.33866,0.6246 -0.18627,0.19993 -0.33867,0.46344 -0.33867,0.58558 0,0.12214 -0.0762,0.22207 -0.16933,0.22207 -0.0931,0 -0.16934,0.0765 -0.16934,0.1701 0,0.0936 -0.3429,0.66069 -0.762,1.26029 -0.4191,0.5996 -0.762,1.17076 -0.762,1.26923 0,0.0985 -0.0582,0.17905 -0.12936,0.17905 -0.0711,0 -0.31773,0.3048 -0.54797,0.67733 -0.23024,0.37254 -0.47683,0.67734 -0.54797,0.67734 -0.0711,0 -0.12936,0.0999 -0.12936,0.22207 0,0.12214 -0.1524,0.38565 -0.33867,0.58558 -0.18627,0.19994 -0.33867,0.43656 -0.33867,0.52582 0,0.0893 -0.0572,0.1877 -0.127,0.21875 -0.0699,0.031 -0.39162,0.39934 -0.71506,0.81844 -0.85894,1.11301 -0.90022,1.16345 -1.31694,1.60913 -0.20955,0.22411 -0.381,0.45915 -0.381,0.52231 0,0.0632 -0.1376,0.23808 -0.30579,0.3887 -0.16819,0.15063 -0.43216,0.45838 -0.58661,0.68389 -0.34907,0.50969 -1.94836,2.29998 -3.12926,3.50298 -0.48895,0.4981 -0.889,0.94338 -0.889,0.98952 0,0.10187 -1.50344,1.61681 -1.60453,1.61681 -0.0394,0 -0.56029,0.47625 -1.15757,1.05833 -1.62652,1.58514 -2.99854,2.83633 -3.11025,2.83633 -0.0546,0 -0.2225,0.13489 -0.37312,0.29975 -0.15063,0.16485 -0.54057,0.51255 -0.86653,0.77266 -0.32597,0.26011 -0.84855,0.67767 -1.1613,0.92792 -0.31275,0.25026 -0.80679,0.67076 -1.09787,0.93445 -0.29108,0.2637 -0.74004,0.60398 -0.9977,0.75618 -0.25766,0.1522 -0.46847,0.3365 -0.46847,0.40955 0,0.0731 -0.1143,0.13283 -0.254,0.13283 -0.1397,0 -0.254,0.0762 -0.254,0.16933 0,0.0931 -0.1143,0.16933 -0.254,0.16933 -0.1397,0 -0.254,0.0762 -0.254,0.16934 0,0.0931 -0.1143,0.16933 -0.254,0.16933 -0.1397,0 -0.254,0.0633 -0.254,0.14072 0,0.0774 -0.20955,0.24885 -0.46566,0.381 -0.25612,0.13215 -0.6168,0.37681 -0.80152,0.54368 -0.18471,0.16687 -0.67885,0.50441 -1.09807,0.75009 -0.41923,0.24569 -0.91111,0.58541 -1.09308,0.75494 -0.18197,0.16953 -0.43079,0.30824 -0.55293,0.30824 -0.12214,0 -0.22207,0.0673 -0.22207,0.14958 0,0.0823 -0.13335,0.19187 -0.29633,0.24356 -0.29014,0.092 -1.22951,0.6247 -1.397,0.79219 -0.1033,0.1033 -0.65805,0.42139 -1.778,1.01949 -0.46567,0.24869 -1.15147,0.62622 -1.524,0.83896 -0.37254,0.21275 -1.51554,0.80307 -2.54,1.31183 -1.02447,0.50876 -1.99498,0.99417 -2.1567,1.0787 -0.16172,0.0845 -0.40937,0.15369 -0.55034,0.15369 -0.14096,0 -0.2563,0.0762 -0.2563,0.16933 0,0.0931 -0.1479,0.16933 -0.32867,0.16933 -0.18077,0 -0.37577,0.0762 -0.43333,0.16934 -0.0575,0.0931 -0.25255,0.16933 -0.43332,0.16933 -0.18077,0 -0.32868,0.0596 -0.32868,0.13237 0,0.0728 -0.36195,0.23767 -0.80433,0.36638 -0.44238,0.12871 -0.84243,0.28484 -0.889,0.34694 -0.0466,0.0621 -0.69427,0.32866 -1.43933,0.59234 -0.74507,0.26369 -1.42706,0.5433 -1.51553,0.62137 -0.0885,0.0781 -0.29907,0.14193 -0.46797,0.14193 -0.1689,0 -0.45846,0.0762 -0.64347,0.16934 -0.185,0.0931 -0.48773,0.24553 -0.67273,0.33866 -0.18501,0.0931 -0.48531,0.16934 -0.66734,0.16934 -0.18204,0 -0.37807,0.0762 -0.43563,0.16933 -0.0576,0.0931 -0.32426,0.16933 -0.59266,0.16933 -0.26841,0 -0.53511,0.0762 -0.59267,0.16934 -0.0576,0.0931 -0.32426,0.16933 -0.59267,0.16933 -0.26841,0 -0.53511,0.0762 -0.59266,0.16933 -0.0576,0.0931 -0.32426,0.16934 -0.59267,0.16934 -0.26841,0 -0.53511,0.0762 -0.59267,0.16933 -0.0576,0.0931 -0.36236,0.16933 -0.67733,0.16933 -0.31498,0 -0.61978,0.0762 -0.67733,0.16934 -0.0576,0.0931 -0.36236,0.16933 -0.67734,0.16933 -0.31497,0 -0.61977,0.0762 -0.67733,0.16933 -0.0576,0.0931 -0.38972,0.16934 -0.73813,0.16934 -0.34841,0 -0.70586,0.0684 -0.79434,0.1521 -0.0885,0.0837 -1.30386,0.35276 -2.70086,0.59801 -1.397,0.24524 -2.6924,0.48722 -2.87867,0.53774 -0.37811,0.10255 -2.26856,0.34979 -4.572,0.59796 -1.64993,0.17777 -15.52839,0.39403 -15.6781,0.24431 z m 9.41277,-29.88489 c 5.28833,-0.51803 10.82612,-1.8115 13.97,-3.263 0.4191,-0.19349 0.9144,-0.41196 1.10066,-0.48549 1.14752,-0.45297 1.43934,-0.59721 1.43934,-0.71141 0,-0.0704 0.10994,-0.128 0.24432,-0.128 0.21594,0 1.23899,-0.52974 1.70301,-0.88183 0.0931,-0.0707 0.81703,-0.56194 1.60867,-1.09172 1.55057,-1.03768 5.41866,-4.75414 5.41866,-5.20625 0,-0.14898 0.0633,-0.27087 0.14072,-0.27087 0.0774,0 0.24885,-0.20955 0.381,-0.46566 0.13216,-0.25612 0.37363,-0.61339 0.53662,-0.79393 0.16298,-0.18055 0.29633,-0.4663 0.29633,-0.635 0,-0.16871 0.0576,-0.30674 0.128,-0.30674 0.0704,0 0.22918,-0.24765 0.35286,-0.55033 0.46866,-1.14701 0.58241,-1.40888 0.79066,-1.82034 0.18818,-0.37178 0.512,-1.71991 1.11854,-4.65666 0.20654,-1.00007 0.1057,-6.01581 -0.1481,-7.366 -0.28394,-1.51055 -0.89952,-3.79723 -1.06898,-3.97087 -0.0863,-0.0885 -0.15698,-0.33613 -0.15698,-0.55033 0,-0.21421 -0.0762,-0.38947 -0.16933,-0.38947 -0.0931,0 -0.16962,-0.13335 -0.16997,-0.29633 -3.5e-4,-0.16299 -0.15275,-0.54583 -0.33867,-0.85076 -0.18592,-0.30494 -0.33803,-0.66689 -0.33803,-0.80434 0,-0.13745 -0.0673,-0.2499 -0.14959,-0.2499 -0.0823,0 -0.19187,-0.13335 -0.24356,-0.29634 -0.11403,-0.35956 -0.62873,-1.21681 -0.91918,-1.53094 -0.11642,-0.1259 -0.21167,-0.29461 -0.21167,-0.3749 0,-0.22172 -3.227,-3.38582 -3.45312,-3.38582 -0.1086,0 -0.30729,-0.1524 -0.44155,-0.33867 -0.13425,-0.18627 -0.34157,-0.33867 -0.46071,-0.33867 -0.11914,0 -0.21662,-0.0582 -0.21662,-0.12936 0,-0.0711 -0.3048,-0.31773 -0.67733,-0.54797 -0.37254,-0.23024 -0.67734,-0.47169 -0.67734,-0.53656 0,-0.0649 -0.15195,-0.16618 -0.33766,-0.22512 -0.18572,-0.059 -0.43337,-0.20268 -0.55034,-0.31942 -0.11696,-0.11674 -0.63176,-0.50474 -1.144,-0.86222 -0.51223,-0.35749 -0.96943,-0.70017 -1.016,-0.7615 -0.0466,-0.0613 -0.4556,-0.36399 -0.90896,-0.67256 -1.14463,-0.77905 -3.25963,-2.71046 -4.09397,-3.73861 -0.63008,-0.77643 -1.43173,-2.00143 -1.43173,-2.18782 0,-0.1009 -0.0669,-0.31577 -0.14855,-0.47749 -0.38062,-0.75341 -0.52879,-1.63109 -0.52879,-3.1324 0,-0.90333 0.0754,-1.6756 0.16934,-1.73363 0.0931,-0.0576 0.16933,-0.23825 0.16933,-0.40152 0,-0.36186 0.6265,-1.68851 0.95029,-2.01229 0.12927,-0.12928 0.23504,-0.31043 0.23504,-0.40255 0,-0.21959 2.43307,-2.640114 3.302,-3.284974 0.37254,-0.27647 0.86706,-0.67412 1.09894,-0.88367 0.23188,-0.20955 0.47409,-0.381 0.53824,-0.381 0.0641,0 0.21732,-0.0968 0.34039,-0.21517 0.12307,-0.11833 0.60355,-0.51838 1.06773,-0.889 1.53096,-1.22234 4.15137,-3.94654 4.15137,-4.31579 0,-0.0924 0.0572,-0.16864 0.127,-0.16936 0.0698,-7.3e-4 0.21389,-0.17218 0.3201,-0.381 0.10621,-0.20883 0.50433,-0.98928 0.88471,-1.73435 0.38039,-0.74507 0.69355,-1.45095 0.6959,-1.56863 0.002,-0.11768 0.0712,-0.34628 0.15295,-0.508 1.26454,-2.501137 1.59776,-5.973797 0.88873,-9.262057 -0.20004,-0.92767 -0.43908,-1.76206 -0.53121,-1.8542 -0.0921,-0.0921 -0.16751,-0.33919 -0.16751,-0.54901 0,-0.20982 -0.0683,-0.55653 -0.1517,-0.77047 -0.0834,-0.21393 -0.24327,-0.73186 -0.35517,-1.15096 -0.11191,-0.4191 -0.27225,-0.89432 -0.35631,-1.05604 -0.0841,-0.16172 -0.15282,-0.48557 -0.15282,-0.71967 0,-0.234093 -0.0762,-0.425627 -0.16934,-0.425627 -0.0931,0 -0.16933,-0.262203 -0.16933,-0.582673 0,-0.320471 -0.0762,-0.629768 -0.16933,-0.687327 -0.19512,-0.12059 -0.23428,-2.286 -0.0413,-2.286 0.0704,0 0.22581,-0.20955 0.34536,-0.465667 0.11955,-0.256117 0.94533,-1.037167 1.83506,-1.735667 0.88974,-0.6985 1.79766,-1.44145 2.01761,-1.651 0.21995,-0.20955 0.46521,-0.381 0.54501,-0.381 0.0798,0 0.29282,-0.136509 0.47337,-0.303353 0.18054,-0.166845 0.70926,-0.561866 1.17492,-0.877825 0.46567,-0.315958 0.88477,-0.617771 0.93134,-0.670695 0.0466,-0.05292 0.65616,-0.553252 1.35466,-1.111842 0.6985,-0.55859 1.35675,-1.091818 1.46278,-1.184951 0.41518,-0.364705 0.84806,-0.699453 1.41589,-1.094921 0.32597,-0.227019 0.63077,-0.461735 0.67733,-0.521589 0.16059,-0.206408 2.96392,-2.235935 3.21734,-2.329254 0.1397,-0.05144 0.2921,-0.137192 0.33866,-0.190552 0.0466,-0.05336 0.33586,-0.236764 0.64286,-0.407565 0.88012,-0.489655 1.05048,-0.217868 1.05048,1.675954 0,0.869302 -0.0761,1.624939 -0.16934,1.682593 -0.0931,0.05756 -0.16933,0.32426 -0.16933,0.592667 0,0.268407 -0.0762,0.535107 -0.16933,0.592667 -0.0931,0.05756 -0.16934,0.290656 -0.16934,0.517993 0,0.227337 -0.0762,0.41334 -0.16933,0.41334 -0.0931,0 -0.16933,0.115334 -0.16933,0.256298 0,0.140963 -0.07,0.388613 -0.1555,0.550333 -1.12438,2.126148 -1.26405,2.969769 -1.1841,7.152036 0.11372,5.948907 0.0521,9.606257 -0.25517,15.155337 -0.37395,6.752227 -0.38878,14.226487 -0.0332,16.764001 0.29555,2.10943 0.55336,3.13266 0.7893,3.13266 0.0888,0 0.16137,0.10876 0.16137,0.24167 0,0.34863 1.13063,1.22916 1.75424,1.36621 1.8219,0.40038 3.51299,0.23895 4.4491,-0.42471 1.29077,-0.9151 1.92621,-4.14375 1.92289,-9.770164 -0.002,-2.92526 -0.18097,-6.44402 -0.77449,-15.204337 -0.24588,-3.62911 -0.26025,-4.92215 -0.10069,-9.059334 0.17501,-4.537442 0.1488,-5.381354 -0.23794,-7.663903 -0.0593,-0.350113 -0.17564,-0.67846 -0.25848,-0.72966 -0.0828,-0.0512 -0.15063,-0.274597 -0.15063,-0.496437 0,-0.22184 -0.0762,-0.45044 -0.16933,-0.508 -0.0931,-0.05756 -0.16933,-0.252557 -0.16933,-0.433327 0,-0.18077 -0.0762,-0.328673 -0.16934,-0.328673 -0.0931,0 -0.16933,-0.186003 -0.16933,-0.41334 0,-0.227337 -0.0762,-0.460434 -0.16933,-0.517993 -0.0931,-0.05756 -0.16934,-0.28616 -0.16934,-0.508 0,-0.221841 -0.0762,-0.450441 -0.16933,-0.508 -0.0931,-0.05756 -0.16933,-0.32426 -0.16933,-0.592667 0,-0.268407 -0.0762,-0.535107 -0.16934,-0.592667 -0.0975,-0.06027 -0.16933,-0.957982 -0.16933,-2.116666 0,-1.158684 0.0718,-2.056399 0.16933,-2.116667 0.0931,-0.05756 0.16934,-0.257877 0.16934,-0.445151 0,-0.373367 0.87518,-1.74355 1.4287,-2.236765 0.19211,-0.171187 0.55885,-0.435267 0.81496,-0.586843 0.25612,-0.151576 0.46567,-0.335364 0.46567,-0.408417 0,-0.07305 0.0797,-0.132824 0.17703,-0.132824 0.0974,0 0.36121,-0.184175 0.58631,-0.409278 0.2251,-0.225102 0.54861,-0.510852 0.7189,-0.635 0.43219,-0.315076 1.05776,-1.240163 1.05776,-1.564195 0,-0.246411 -2.80276,-0.270194 -31.84236,-0.270194 H 94.395312 l -0.40055,0.381 c -0.2203,0.20955 -0.76744,0.6858 -1.21586,1.058334 -0.44841,0.372533 -0.97447,0.831187 -1.16901,1.01923 -0.19454,0.188043 -0.69169,0.606128 -1.10478,0.929076 -0.41309,0.322949 -1.03085,0.873945 -1.3728,1.224437 -0.34194,0.350491 -0.66323,0.637257 -0.71396,0.637257 -0.10532,0 -1.00235,0.784878 -2.03206,1.778 -0.38626,0.372533 -0.96763,0.876407 -1.29194,1.119719 -0.3243,0.243313 -0.8302,0.662413 -1.12421,0.931334 -0.29402,0.268921 -0.89661,0.793747 -1.33911,1.16628 -0.44249,0.372533 -1.13338,1.001183 -1.5353,1.397 -0.40193,0.395817 -0.80263,0.719667 -0.89046,0.719667 -0.0878,0 -0.18508,0.05715 -0.21612,0.127 -0.031,0.06985 -0.47478,0.4699 -0.98608,0.889 -0.5113,0.4191 -1.16518,0.9906 -1.45307,1.27 -0.28788,0.2794 -0.89378,0.8128 -1.34644,1.185333 -0.45266,0.372533 -0.97988,0.829941 -1.1716,1.016462 -0.19172,0.186521 -0.67272,0.593196 -1.068881,0.903722 -0.39616,0.310526 -0.97367,0.805618 -1.28335,1.100205 -0.95253,0.906081 -1.79306,1.636278 -1.88354,1.636278 -0.0474,0 -0.44949,0.349121 -0.89351,0.775824 -0.44402,0.426703 -1.01686,0.900332 -1.27297,1.052509 -0.25612,0.152177 -0.46567,0.324549 -0.46567,0.383048 0,0.0585 -0.62775,0.632621 -1.395,1.275824 -0.76725,0.643204 -1.63791,1.408932 -1.9348,1.701622 -0.29689,0.29268 -0.82289,0.74807 -1.16888,1.01197 -0.34599,0.2639 -0.94609,0.78643 -1.33355,1.16118 -0.38746,0.37475 -0.97573,0.88671 -1.30727,1.1377 -0.33154,0.25099 -0.90933,0.74629 -1.28399,1.10067 -0.37466,0.35437 -0.97579,0.88431 -1.33585,1.17763 -0.89201,0.72668 -2.26333,2.03493 -2.26333,2.15924 0,0.0558 5.47574,0.10145 12.16831,0.10145 h 12.168311 l 0.12549,0.97367 c 0.069,0.53551 0.19211,1.43086 0.27354,1.98966 0.0814,0.5588 0.19583,1.3589 0.25422,1.778 0.0584,0.4191 0.17455,0.834387 0.25814,0.922867 0.0836,0.0885 0.15199,0.40783 0.15199,0.70967 0,0.30185 0.0762,0.5959 0.16934,0.65346 0.0931,0.0576 0.16933,0.32876 0.16933,0.60266 0,0.27391 0.0762,0.49801 0.16933,0.49801 0.0931,0 0.16934,0.2286 0.16934,0.508 0,0.2794 0.0577,0.508 0.1281,0.508 0.0705,0 0.22691,0.32385 0.34766,0.71967 0.21045,0.68978 1.50046,3.3379 1.71167,3.51366 0.056,0.0466 0.31279,0.41024 0.57076,0.80817 0.66919,1.03228 0.90838,1.31577 2.23945,2.65425 1.3165,1.32382 2.6305,2.46425 2.83932,2.46425 0.0747,0 0.30351,0.156194 0.50842,0.347094 0.47006,0.43792 1.78234,1.17691 2.08994,1.17691 0.12797,0 0.23268,0.0762 0.23268,0.16933 0,0.0931 0.1524,0.16934 0.33866,0.16934 0.18627,0 0.33867,0.0762 0.33867,0.16933 0,0.0931 0.1479,0.16933 0.32867,0.16933 0.18077,0 0.37577,0.0762 0.43333,0.16934 0.0576,0.0931 0.29066,0.16933 0.51799,0.16933 0.22734,0 0.41334,0.0762 0.41334,0.16933 0,0.0931 0.2241,0.16934 0.49801,0.16934 0.2739,0 0.5451,0.0762 0.60266,0.16933 0.0576,0.0931 0.32876,0.16933 0.60266,0.16933 0.2739,0 0.49801,0.0682 0.49801,0.15155 0,0.0833 0.28575,0.19467 0.635,0.24737 0.34925,0.0527 1.0922,0.17823 1.651,0.27893 1.804838,0.32526 3.673318,0.52294 6.082418,0.64352 1.64776,0.0825 2.37816,0.18166 2.42711,0.32963 0.0385,0.11642 -0.0125,0.21167 -0.11342,0.21167 -0.10089,0 -0.18345,0.1479 -0.18345,0.32867 0,0.18077 -0.0762,0.37577 -0.16933,0.43333 -0.0931,0.0576 -0.16934,0.29066 -0.16934,0.51799 0,0.22734 -0.0665,0.41334 -0.14778,0.41334 -0.50339,0 -0.52506,4.55078 -0.029,6.096 0.0747,0.23284 0.31392,0.99484 0.53151,1.69334 0.21759,0.6985 0.45232,1.31069 0.52161,1.36042 0.0693,0.0497 0.32157,0.50693 0.56063,1.016 0.50722,1.08013 1.04995,1.9726 1.48965,2.44958 0.31047,0.33679 0.30068,0.33937 -1.77286,0.46698 -1.88134,0.11579 -4.33916,0.29327 -7.67306,0.55409 -0.65193,0.051 -1.337728,0.16199 -1.523998,0.24665 -0.18626,0.0847 -0.68156,0.19099 -1.10066,0.23629 -0.78903,0.0853 -2.12704,0.32488 -3.302,0.59127 -1.01167,0.22937 -4.20734,1.21632 -4.40224,1.35959 -0.0934,0.0686 -0.51266,0.22797 -0.93176,0.35407 -0.4191,0.1261 -0.83439,0.29223 -0.92287,0.36917 -0.0885,0.0769 -0.29803,0.13989 -0.46567,0.13989 -0.16764,0 -0.3048,0.0762 -0.3048,0.16933 0,0.0931 -0.10359,0.16933 -0.23021,0.16933 -0.21357,0 -2.28929,0.99182 -2.47912,1.18457 -0.0466,0.0473 -0.31327,0.20015 -0.59267,0.3397 -0.2794,0.13955 -0.60122,0.34152 -0.71517,0.44881 -0.11395,0.1073 -0.49495,0.36997 -0.84667,0.58373 -0.35172,0.21376 -0.67759,0.43274 -0.72416,0.48663 -0.0466,0.0539 -0.42756,0.35943 -0.84666,0.67897 -0.9754,0.74371 -3.00104,2.76731 -3.64725,3.64359 -0.27472,0.37254 -0.54305,0.71544 -0.5963,0.762 -0.23394,0.20461 -1.17512,1.68699 -1.17512,1.85085 0,0.0996 -0.0661,0.18115 -0.14692,0.18115 -0.0808,0 -0.51035,0.74295 -0.95455,1.651 -0.4442,0.90805 -0.87338,1.78332 -0.95375,1.94504 -0.0804,0.16172 -0.14611,0.44297 -0.14611,0.62501 0,0.18203 -0.0762,0.37806 -0.169341,0.43562 -0.0931,0.0576 -0.16933,0.40046 -0.16933,0.762 0,0.36154 -0.0762,0.70444 -0.16933,0.762 -0.10062,0.0622 -0.16934,1.12732 -0.16934,2.62467 0,1.49735 0.0687,2.56248 0.16934,2.62466 0.0931,0.0576 0.16933,0.36686 0.16933,0.68733 0,0.32047 0.0762,0.58267 0.16933,0.58267 0.0931,0 0.169341,0.15344 0.169341,0.34097 0,0.18753 0.0673,0.47328 0.14957,0.635 0.0823,0.16172 0.2509,0.52263 0.37474,0.80203 0.32011,0.72223 1.35564,2.3206 1.71331,2.64453 0.16631,0.15063 0.30238,0.32554 0.30238,0.3887 0,0.0632 0.17145,0.29229 0.381,0.50919 0.20955,0.2169 0.49845,0.53728 0.642,0.71197 0.53778,0.65443 2.52099,2.31081 3.73297,3.11778 0.69045,0.45972 1.34739,0.91311 1.45988,1.00751 0.11249,0.0944 0.26489,0.17335 0.33867,0.17542 0.0738,0.002 0.32464,0.15278 0.55748,0.3349 0.23283,0.18213 0.55668,0.33283 0.71966,0.3349 0.16299,0.002 0.29693,0.0609 0.29766,0.13077 0.002,0.15207 0.82158,0.55033 1.1331,0.55033 0.12114,0 0.22024,0.0762 0.22024,0.16934 0,0.0931 0.11534,0.16933 0.2563,0.16933 0.14097,0 0.38862,0.0673 0.55034,0.14958 0.32559,0.16563 1.1261,0.50485 1.6487,0.69866 0.18626,0.0691 0.56726,0.2203 0.84666,0.33605 0.60692,0.25143 1.20626,0.44291 2.45534,0.78444 0.51223,0.14006 1.35043,0.37263 1.86266,0.51682 1.60615,0.45213 3.92778,0.84028 6.21925,1.03979 0.859418,0.0748 1.620768,0.19423 1.691878,0.26534 0.15943,0.15943 5.782,0.007 8.09088,-0.21878 z m -4.17775,-4.67342 c -0.0605,-0.0605 -0.74543,-0.18168 -1.52211,-0.26934 -2.3697,-0.26746 -2.92917,-0.35533 -3.10548,-0.48772 -0.0931,-0.0699 -0.74083,-0.26274 -1.439328,-0.42845 -0.6985,-0.16571 -1.6129,-0.45041 -2.032,-0.63267 -0.4191,-0.18226 -0.9144,-0.38725 -1.10067,-0.45553 -0.82816,-0.30359 -3.46658,-1.63244 -3.46883,-1.7471 -0.001,-0.0699 -0.084,-0.127 -0.18366,-0.127 -0.66178,0 -5.56091,-4.57283 -5.57994,-5.20829 -0.002,-0.0691 -0.15278,-0.31621 -0.3349,-0.54905 -0.18213,-0.23283 -0.33284,-0.55668 -0.33491,-0.71966 -0.002,-0.16299 -0.08,-0.29634 -0.17309,-0.29634 -0.0931,0 -0.16934,-0.1524 -0.16934,-0.33866 0,-0.18627 -0.0762,-0.33867 -0.16933,-0.33867 -0.0931,0 -0.16933,-0.2286 -0.16933,-0.508 0,-0.2794 -0.0675,-0.508 -0.15012,-0.508 -0.30433,0 -0.75336,-2.85348 -0.75944,-4.826 -0.008,-2.67231 0.33144,-4.5432 1.09865,-6.05137 0.0823,-0.16172 0.14957,-0.40937 0.14957,-0.55033 0,-0.14097 0.0673,-0.2563 0.14959,-0.2563 0.0823,0 0.19187,-0.13335 0.24356,-0.29633 0.41168,-1.29813 3.40877,-4.46422 5.16951,-5.461 0.24677,-0.1397 0.48678,-0.2921 0.53334,-0.33867 0.17356,-0.17356 1.12655,-0.6934 1.905,-1.03914 0.44239,-0.19648 0.80434,-0.42405 0.80434,-0.50571 0,-0.0817 0.13716,-0.14848 0.3048,-0.14848 0.16764,0 0.37719,-0.0606 0.46566,-0.13477 0.0885,-0.0741 0.46567,-0.23156 0.8382,-0.34986 0.37254,-0.1183 0.82974,-0.2757 1.016,-0.34977 0.75011,-0.29829 1.56802,-0.52027 1.91702,-0.52027 0.20294,0 0.36898,-0.0762 0.36898,-0.16933 0,-0.0931 0.342898,-0.16934 0.761998,-0.16934 0.4191,0 0.762,-0.0688 0.762,-0.15299 0,-0.0841 0.36195,-0.19271 0.80433,-0.24126 0.44239,-0.0486 1.45204,-0.18228 2.24367,-0.29718 2.78336,-0.404 7.03089,-0.2503 9.73667,0.35233 0.46567,0.10371 1.09503,0.23086 1.39857,0.28254 0.30355,0.0517 0.5938,0.16176 0.645,0.24461 0.0512,0.0828 0.31269,0.15062 0.5811,0.15062 0.26841,0 0.53511,0.0762 0.59267,0.16933 0.0576,0.0931 0.29065,0.16934 0.51799,0.16934 0.22734,0 0.41334,0.0762 0.41334,0.16933 0,0.0931 0.12824,0.16933 0.28498,0.16933 0.32232,0 3.55157,1.60137 3.96169,1.96458 0.14703,0.13022 0.35658,0.23676 0.46566,0.23676 0.10909,0 0.19834,0.0762 0.19834,0.16933 0,0.0931 0.0999,0.16933 0.22207,0.16933 0.12213,0 0.36978,0.13542 0.55033,0.30094 0.18054,0.16551 0.59496,0.48771 0.92093,0.71598 0.32597,0.22828 0.75454,0.56911 0.95239,0.7574 0.19784,0.18829 0.50264,0.46468 0.67733,0.6142 0.55073,0.47138 1.58761,1.67998 1.58761,1.85054 0,0.09 0.0762,0.16361 0.16934,0.16361 0.0931,0 0.16933,0.0794 0.16933,0.17641 0,0.097 0.1524,0.34 0.33867,0.53993 0.18626,0.19994 0.33866,0.46345 0.33866,0.58559 0,0.12214 0.0679,0.22207 0.15095,0.22207 0.32779,0 1.53354,3.64048 1.82274,5.50333 0.29287,1.88646 0.10495,5.28924 -0.36003,6.51934 -0.63005,1.66678 -1.33714,3.21733 -1.46719,3.21733 -0.0806,0 -0.14656,0.0952 -0.14667,0.21167 -1.2e-4,0.11641 -0.19723,0.44026 -0.43803,0.71966 -0.24081,0.2794 -0.55463,0.6985 -0.6974,0.93134 -0.22736,0.3708 -0.9449,1.03246 -2.8437,2.62225 -0.2794,0.23393 -0.60325,0.42543 -0.71967,0.42554 -0.11641,1.1e-4 -0.21166,0.0593 -0.21166,0.13153 0,0.12248 -2.44075,1.4005 -3.38667,1.77333 -0.23283,0.0918 -0.57397,0.24561 -0.75808,0.34186 -0.94107,0.49198 -4.37558,1.36874 -6.52325,1.66525 -1.50384,0.20763 -7.82925,0.39455 -7.98775,0.23605 z m 3.36601,-56.06999 c -0.0584,-0.0584 -0.39494,-0.16569 -0.74788,-0.23844 -0.6921,-0.14264 -3.11416,-1.11901 -3.26137,-1.3147 -0.0493,-0.0656 -0.31829,-0.233404 -0.59769,-0.372954 -0.2794,-0.13956 -0.65571,-0.38708 -0.83626,-0.55007 -0.18054,-0.16298 -0.41137,-0.29633 -0.51295,-0.29633 -0.10158,0 -0.29453,-0.1524 -0.42879,-0.33867 -0.13425,-0.18626 -0.33888,-0.33866 -0.45473,-0.33866 -0.24099,0 -3.479308,-3.18088 -4.117258,-4.04424 -0.23284,-0.3151 -0.55491,-0.72476 -0.71573,-0.91036 -0.16081,-0.1856 -0.53931,-0.7279 -0.84111,-1.2051 -0.30179,-0.4772 -0.59118,-0.90574 -0.64309,-0.9523 -0.0519,-0.0466 -0.28287,-0.44662 -0.51326,-0.889 -0.2304,-0.44239 -0.47618,-0.80434 -0.54619,-0.80434 -0.07,0 -0.12729,-0.1524 -0.12729,-0.33866 0,-0.18627 -0.0762,-0.33867 -0.16933,-0.33867 -0.0931,0 -0.16934,-0.1479 -0.16934,-0.32867 0,-0.18077 -0.0762,-0.37577 -0.16933,-0.43333 -0.0931,-0.0576 -0.16933,-0.25256 -0.16933,-0.43333 0,-0.18077 -0.0624,-0.32867 -0.13873,-0.32867 -0.0763,0 -0.24378,-0.38583 -0.3722,-0.8574 -0.12841,-0.47157 -0.29458,-0.895157 -0.36927,-0.941317 -0.0747,-0.0462 -0.1358,-0.2547 -0.1358,-0.46341 0,-0.20871 -0.0681,-0.45186 -0.15134,-0.54034 -0.2496,-0.26531 -0.81476,-2.894 -1.12872,-5.24989 -0.27962,-2.09825 -0.27967,-2.30867 -10e-4,-4.14867 0.35304,-2.33121 0.92767,-4.732304 1.13254,-4.732304 0.0817,0 0.14855,-0.186003 0.14855,-0.41334 0,-0.227337 0.0762,-0.460434 0.16933,-0.517993 0.0931,-0.05756 0.16933,-0.252557 0.16933,-0.433327 0,-0.18077 0.0762,-0.328673 0.16934,-0.328673 0.0931,0 0.16933,-0.1524 0.16933,-0.338667 0,-0.186267 0.0762,-0.338667 0.16933,-0.338667 0.0931,0 0.16934,-0.09993 0.16934,-0.22207 0,-0.122139 0.1524,-0.385652 0.33866,-0.585586 0.18627,-0.199934 0.33876,-0.423852 0.33888,-0.497597 1.9e-4,-0.124474 0.36591,-0.597599 1.04162,-1.34752 0.47768,-0.530148 1.2341,-1.146506 1.71507,-1.397507 0.25324,-0.132155 0.46043,-0.303605 0.46043,-0.381 0,-0.0774 0.1524,-0.14072 0.33867,-0.14072 0.18627,0 0.33867,-0.0762 0.33867,-0.169333 0,-0.09313 0.1524,-0.169333 0.33866,-0.169333 0.18627,0 0.33867,-0.0762 0.33867,-0.169334 0,-0.09313 0.10259,-0.169333 0.22798,-0.169333 0.12539,0 0.45496,-0.113227 0.732358,-0.251616 1.01661,-0.50715 3.08991,-0.808911 4.96175,-0.722165 1.78553,0.08275 4.06858,0.545708 4.06858,0.825034 0,0.08181 0.14466,0.148747 0.32147,0.148747 0.17681,0 0.76736,0.239765 1.31233,0.532812 0.54498,0.293046 1.16172,0.616896 1.37054,0.719666 0.20883,0.102771 0.38028,0.244005 0.381,0.313855 7.3e-4,0.06985 0.11563,0.127 0.25533,0.127 0.1397,0 0.254,0.05977 0.254,0.132824 0,0.07305 0.24588,0.278073 0.54641,0.455601 0.84495,0.49912 3.69652,3.424971 4.62511,4.745575 0.4584,0.651934 0.89204,1.210734 0.96364,1.241778 0.0716,0.03104 0.13017,0.164395 0.13017,0.296333 0,0.131939 0.0762,0.239889 0.16933,0.239889 0.0931,0 0.16934,0.14605 0.16934,0.324556 0,0.178505 0.062,0.349955 0.13777,0.381 0.0758,0.03104 0.46386,0.704145 0.8624,1.495775 1.24744,2.47781 2.14263,5.04118 2.6611,7.62 0.206,1.02465 0.14015,7.460857 -0.0858,8.381997 -0.1142,0.46567 -0.24994,1.09503 -0.30162,1.39857 -0.0517,0.30355 -0.16176,0.5938 -0.2446,0.645 -0.0828,0.0512 -0.15063,0.23582 -0.15063,0.41027 0,0.28886 -1.45002,3.35848 -1.68049,3.5575 -0.0539,0.0466 -0.20605,0.29421 -0.33806,0.55033 -0.132,0.25612 -0.30333,0.46567 -0.38073,0.46567 -0.0774,0 -0.14072,0.0753 -0.14072,0.16739 0,0.41027 -2.56999,3.04994 -2.96943,3.04994 -0.13634,0 -0.2479,0.0696 -0.2479,0.154664 0,0.16763 -2.07924,1.19534 -3.06002,1.51248 -0.62651,0.20258 -4.59168,0.27671 -4.77905,0.0893 z"
       id="path1" /></g></svg>
