<?xml version="1.0" encoding="UTF-8" standalone="no"?>
<!-- Created with Inkscape (http://www.inkscape.org/) -->

<svg
   width="135.46664mm"
   height="135.46666mm"
   viewBox="0 0 135.46664 135.46666"
   version="1.1"
   id="svg5"
   xml:space="preserve"
   inkscape:version="1.2.1 (9c6d41e410, 2022-07-14)"
   sodipodi:docname="mast.svg"
   xmlns:inkscape="http://www.inkscape.org/namespaces/inkscape"
   xmlns:sodipodi="http://sodipodi.sourceforge.net/DTD/sodipodi-0.dtd"
   xmlns="http://www.w3.org/2000/svg"
   xmlns:svg="http://www.w3.org/2000/svg"><sodipodi:namedview
     id="namedview7"
     pagecolor="#ffffff"
     bordercolor="#000000"
     borderopacity="0.25"
     inkscape:showpageshadow="2"
     inkscape:pageopacity="0.0"
     inkscape:pagecheckerboard="0"
     inkscape:deskcolor="#d1d1d1"
     inkscape:document-units="mm"
     showgrid="false"
     inkscape:zoom="1.17734"
     inkscape:cx="120.18618"
     inkscape:cy="265.00417"
     inkscape:window-width="1920"
     inkscape:window-height="1021"
     inkscape:window-x="0"
     inkscape:window-y="0"
     inkscape:window-maximized="1"
     inkscape:current-layer="layer1" /><defs
     id="defs2" /><g
     inkscape:label="Layer 1"
     inkscape:groupmode="layer"
     id="layer1"
     transform="translate(-35.463484,-64.547562)"><path
       style="fill:#ffcc3d;stroke-width:1;fill-opacity:1"
       d="m 91.290567,195.34669 c -9.295209,-0.84909 -19.87306,-3.27648 -24.619145,-5.64955 -12.526425,-6.26329 -19.621426,-19.20366 -22.196139,-40.48292 -1.001369,-8.27602 -1.190596,-12.85149 -1.198186,-28.97187 -0.0079,-16.71792 0.08981,-18.2886 1.480949,-23.812498 2.207761,-8.766528 6.801076,-16.11918 12.97726,-20.773075 2.701783,-2.035854 4.567583,-2.975729 8.415847,-4.239386 8.86487,-2.910963 21.183954,-4.348645 37.177957,-4.338803 18.19815,0.0112 31.39009,1.837353 40.48125,5.603805 6.35206,2.631653 12.75122,9.808772 15.98347,17.926626 2.60694,6.547358 3.31057,11.273091 3.2698,21.960411 -0.0557,14.60486 -1.35748,29.20103 -2.99448,33.5763 -2.76444,7.38865 -13.86025,15.05676 -25.83616,17.85493 -3.08219,0.72015 -13.39086,2.02271 -19.26222,2.43389 -9.83957,0.68909 -22.623283,-0.27724 -33.836901,-2.55776 -1.72988,-0.35181 -3.247927,-0.63965 -3.373437,-0.63965 -0.391343,0 -0.243978,2.66796 0.290414,5.25784 1.552917,7.52601 6.208951,11.62608 14.897393,13.11853 8.711981,1.49648 20.487731,1.02284 29.561991,-1.18905 1.67285,-0.40777 3.05964,-0.72102 3.08176,-0.69613 0.0221,0.0249 0.12661,2.44198 0.23218,5.37129 l 0.19195,5.32602 -2.08309,0.79246 c -8.02338,3.0523 -13.86592,4.05274 -24.308089,4.16236 -3.929062,0.0412 -7.679531,0.0261 -8.334374,-0.0338 z M 78.122776,126.92308 c 0.08519,-18.02917 0.08628,-18.06038 0.686988,-19.67967 0.784569,-2.1149 2.079339,-3.59261 3.954804,-4.51358 1.354245,-0.66501 1.795158,-0.74373 4.165938,-0.74373 2.462413,0 2.777233,0.062 4.416851,0.86913 2.6577,1.30838 4.061534,3.34993 4.816355,7.00425 0.339352,1.64291 0.418521,3.95518 0.418521,12.2238 v 10.19761 h 6.614587 6.61458 l 0.005,-10.2526 c 0.005,-10.83247 0.14163,-12.4166 1.29764,-15.02997 0.8917,-2.01583 2.01464,-3.19885 3.93265,-4.14309 1.64312,-0.8089 1.94917,-0.86877 4.41685,-0.86397 2.11907,0.004 2.89314,0.11597 3.85546,0.55712 2.59417,1.18921 4.12631,3.31793 4.72438,6.56392 0.19017,1.03213 0.28926,7.44477 0.28926,18.71927 l -1e-5,17.14932 h 6.63044 6.63043 l -0.10678,-18.98385 c -0.0905,-16.09052 -0.17079,-19.27225 -0.52682,-20.87606 -1.78861,-8.057258 -5.97918,-13.103007 -12.75956,-15.363446 -1.90431,-0.634859 -2.51483,-0.707175 -6.08542,-0.720834 -3.4468,-0.01318 -4.22972,0.06627 -5.95312,0.604176 -4.79919,1.49791 -7.70907,3.977532 -10.83903,9.236372 -1.06098,1.782632 -2.01748,3.241142 -2.12555,3.241142 -0.10807,0 -1.06577,-1.45851 -2.12822,-3.241142 -3.449439,-5.78766 -6.981994,-8.523383 -12.408399,-9.609459 -3.1608,-0.632623 -7.588369,-0.41732 -10.466509,0.508964 -7.541146,2.427 -12.110224,8.766559 -13.090146,18.162477 -0.144206,1.38271 -0.264205,10.28057 -0.266726,19.7776 l -0.0046,17.26406 h 6.602608 6.602607 z"
       id="path1343"
       sodipodi:nodetypes="ssscssssssssssssssssscscsscssscssccccsscssscccsssssssssssscccc" /></g></svg>
