<?xml version="1.0" encoding="UTF-8" standalone="no"?>
<svg
   xmlns:dc="http://purl.org/dc/elements/1.1/"
   xmlns:cc="http://creativecommons.org/ns#"
   xmlns:rdf="http://www.w3.org/1999/02/22-rdf-syntax-ns#"
   xmlns:svg="http://www.w3.org/2000/svg"
   xmlns="http://www.w3.org/2000/svg"
   xmlns:sodipodi="http://sodipodi.sourceforge.net/DTD/sodipodi-0.dtd"
   xmlns:inkscape="http://www.inkscape.org/namespaces/inkscape"
   width="113.003"
   height="122.304"
   version="1.1"
   id="svg4"
   sodipodi:docname="rg.svg"
   inkscape:version="1.0 (4035a4fb49, 2020-05-01)">
  <metadata
     id="metadata10">
    <rdf:RDF>
      <cc:Work
         rdf:about="">
        <dc:format>image/svg+xml</dc:format>
        <dc:type
           rdf:resource="http://purl.org/dc/dcmitype/StillImage" />
      </cc:Work>
    </rdf:RDF>
  </metadata>
  <defs
     id="defs8" />
  <sodipodi:namedview
     inkscape:document-rotation="0"
     pagecolor="#ffffff"
     bordercolor="#666666"
     borderopacity="1"
     objecttolerance="10"
     gridtolerance="10"
     guidetolerance="10"
     inkscape:pageopacity="0"
     inkscape:pageshadow="2"
     inkscape:window-width="1920"
     inkscape:window-height="1021"
     id="namedview6"
     showgrid="false"
     inkscape:zoom="4.0725806"
     inkscape:cx="56.43"
     inkscape:cy="61.136"
     inkscape:window-x="0"
     inkscape:window-y="30"
     inkscape:window-maximized="1"
     inkscape:current-layer="svg4" />
  <path
     d="m 75.774,122.304 c 2.482,0 5.11,-0.438 6.716,-1.168 v -3.796 c -5.256,0 -10.512,-3.65 -14.308,-7.738 C 61.758,102.594 53.144,91.352 45.99,78.65 57.816,75.876 66.576,64.78 66.576,53.684 66.576,37.332 53.874,29.74 37.23,29.74 c -8.614,0 -15.476,0.438 -21.9,0.438 -5.84,0 -11.68,0 -15.33,-0.146 v 4.234 l 5.548,1.022 c 3.796,0.73 5.986,2.482 5.986,11.534 v 57.524 c 0,9.052 -2.19,10.804 -5.986,11.534 L 0,116.902 v 4.234 c 3.942,-0.146 10.804,-0.438 17.666,-0.438 6.57,0 15.038,0.292 18.688,0.438 v -4.234 l -7.592,-1.022 c -3.942,-0.584 -5.986,-2.482 -5.986,-11.534 V 79.964 c 3.504,0.292 6.57,0.292 11.242,0.292 8.906,15.914 17.374,27.886 22.192,33.434 4.38,5.256 11.096,8.614 19.564,8.614 z M 33.288,73.686 c -4.964,0 -7.154,-0.146 -10.512,-0.438 V 36.602 c 3.358,-0.292 7.884,-0.292 11.826,-0.292 12.264,0 19.564,6.424 19.564,18.104 0,11.534 -7.884,19.272 -20.878,19.272 z m 44.56,-36.852 a 40.494,40.494 0 0 1 -0.394,-2.698 45.87,45.87 0 0 1 -0.252,-3.705 158.605,158.605 0 0 1 -0.072,-5.18 c 0,-2.013 0.024,-3.74 0.072,-5.178 a 45.87,45.87 0 0 1 0.252,-3.705 c 0.12,-1.03 0.25,-1.93 0.395,-2.698 0.14,-0.767 0.33,-1.51 0.57,-2.23 1.24,-3.79 3.31,-6.642 6.18,-8.56 2.88,-1.92 6.4,-2.88 10.57,-2.88 2.16,0 4.1,0.253 5.82,0.756 1.727,0.505 3.26,1.2 4.604,2.088 a 15.286,15.286 0 0 1 3.46,3.092 c 0.96,1.18 1.75,2.44 2.375,3.78 0.24,0.43 0.167,0.77 -0.217,1.01 l -5.32,2.2 c -0.44,0.24 -0.77,0.12 -1.01,-0.36 -1.2,-2.204 -2.21,-3.66 -3.89,-4.712 -1.68,-1.055 -3.24,-1.545 -5.83,-1.545 -2.78,0 -4.05,0.55 -5.8,1.796 -1.75,1.24 -3.01,2.79 -3.78,5.14 -0.14,0.43 -0.287,0.96 -0.43,1.58 -0.145,0.62 -0.25,1.39 -0.325,2.3 a 80.63,80.63 0 0 0 -0.18,3.34 134.55,134.55 0 0 0 -0.07,4.78 c 0,1.87 0.023,3.465 0.07,4.784 0.05,1.32 0.11,2.434 0.18,3.345 0.07,0.91 0.18,1.68 0.323,2.303 0.145,0.62 0.29,1.15 0.43,1.58 0.77,2.35 1.845,3.63 3.413,4.665 1.564,1.036 3.38,1.8 6.16,1.8 2.493,0 4.774,-0.71 6.254,-1.79 1.48,-1.077 2.7,-2.5 3.25,-4.46 0.24,-0.814 0.56,-1.845 0.75,-3.09 0.19,-1.25 0.187,-2.58 0.187,-4.408 0,-0.29 -0.144,-0.433 -0.43,-0.433 h -8.49 c -0.48,0 -0.72,-0.24 -0.72,-0.72 v -4.87 c 0,-0.48 0.24,-0.72 0.72,-0.72 h 15.61 c 0.48,0 0.72,0.24 0.72,0.72 v 4.185 c 0,2.206 -0.007,4.256 -0.223,6.15 -0.213,1.894 -0.513,3.54 -0.9,4.74 -1.195,3.74 -3.09,6.416 -5.99,8.406 -2.9,1.99 -6.65,3.076 -10.724,3.076 -4.178,0 -7.7,-0.96 -10.58,-2.878 -2.877,-1.92 -4.94,-4.773 -6.186,-8.56 a 16.99,16.99 0 0 1 -0.575,-2.23 z"
     fill="#FFF"
     fill-rule="evenodd"
     id="path2"
     style="fill:#ffcc3d;fill-opacity:1" />
</svg>
